<svg id="brush" enable-background="new 0 0 300 300" height="512" viewBox="0 0 300 300" width="512" xmlns="http://www.w3.org/2000/svg" xmlns:xlink="http://www.w3.org/1999/xlink"><linearGradient id="SVGID_1_" gradientUnits="userSpaceOnUse" x1="58.558" x2="245.442" y1="268.669" y2="81.785"><stop offset="0" stop-color="#107eff"/><stop offset="1" stop-color="#8f16ff"/></linearGradient><g><path d="m182.12 58.093c0-2.362 1.915-4.276 4.277-4.276s4.276 1.915 4.276 4.276-1.915 4.276-4.276 4.276-4.277-1.914-4.277-4.276zm-72.12 1.907c0-6.617 5.383-12 12-12s12 5.383 12 12-5.383 12-12 12-12-5.383-12-12zm8 0c0 2.205 1.795 4 4 4s4-1.795 4-4-1.795-4-4-4-4 1.795-4 4zm148 142.596v35.951c0 7.418-6.035 13.453-13.453 13.453h-205.094c-7.418 0-13.453-6.035-13.453-13.453v-35.951c-4.713-2.256-8-7.032-8-12.596 0-6.085 3.928-11.224 9.362-13.149l28.607-38.142c12.541-16.725 32.51-26.709 53.416-26.709h128.615c8.822 0 16 7.178 16 16s-7.178 16-16 16h-8v32h22c7.719 0 14 6.281 14 14 0 5.563-3.287 10.34-8 12.596zm-52-26.596v-32h-89.855c-14.213 0-27.727 6.836-36.146 18.283l-10.09 13.717zm-168 0h21.976l13.577-18.457c9.922-13.488 25.843-21.543 42.592-21.543h121.855c4.412 0 8-3.588 8-8s-3.588-8-8-8h-128.615c-18.4 0-35.977 8.789-47.018 23.51zm212 62.547v-34.547h-216v34.547c0 3.008 2.445 5.453 5.453 5.453h4.742c5.253-6.721 8.865-22.709 9.86-28.658.322-1.928 1.99-3.34 3.945-3.34s3.623 1.412 3.945 3.34c.876 5.239 3.785 18.252 8.055 25.877 4.269-7.625 7.178-20.638 8.055-25.877.322-1.928 1.99-3.34 3.945-3.34s3.623 1.412 3.945 3.34c.876 5.239 3.785 18.252 8.055 25.877 4.269-7.625 7.178-20.638 8.055-25.877.322-1.928 1.99-3.34 3.945-3.34s3.623 1.412 3.945 3.34c.876 5.239 3.785 18.252 8.055 25.877 4.269-7.625 7.178-20.638 8.055-25.877.322-1.928 1.99-3.34 3.945-3.34s3.623 1.412 3.945 3.34c.876 5.239 3.785 18.252 8.055 25.877 4.269-7.625 7.178-20.638 8.055-25.877.322-1.928 1.99-3.34 3.945-3.34s3.623 1.412 3.945 3.34c.876 5.239 3.785 18.252 8.055 25.877 4.269-7.625 7.178-20.638 8.055-25.877.322-1.928 1.99-3.34 3.945-3.34s3.623 1.412 3.945 3.34c.876 5.239 3.785 18.252 8.055 25.877 4.269-7.625 7.178-20.638 8.055-25.877.322-1.928 1.99-3.34 3.945-3.34s3.623 1.412 3.945 3.34c.876 5.239 3.785 18.252 8.055 25.877 4.269-7.625 7.178-20.638 8.055-25.877.322-1.928 1.99-3.34 3.945-3.34s3.623 1.412 3.945 3.34c.995 5.949 4.606 21.938 9.86 28.658h4.742c3.008 0 5.453-2.445 5.453-5.453zm8-48.547c0-3.309-2.691-6-6-6h-220c-3.309 0-6 2.691-6 6s2.691 6 6 6h220c3.309 0 6-2.691 6-6zm-220-82h4v4c0 2.209 1.791 4 4 4s4-1.791 4-4v-4h4c2.209 0 4-1.791 4-4s-1.791-4-4-4h-4v-4c0-2.209-1.791-4-4-4s-4 1.791-4 4v4h-4c-2.209 0-4 1.791-4 4s1.791 4 4 4zm184-16h4v4c0 2.209 1.791 4 4 4s4-1.791 4-4v-4h4c2.209 0 4-1.791 4-4s-1.791-4-4-4h-4v-4c0-2.209-1.791-4-4-4s-4 1.791-4 4v4h-4c-2.209 0-4 1.791-4 4s1.791 4 4 4z" fill="url(#SVGID_1_)"/></g></svg>