<svg height="512pt" viewBox="-4 0 512 512.00006" width="512pt" xmlns="http://www.w3.org/2000/svg"><path d="m494.933594 238.933594h-136.535156v-230.398438c0-4.714844-3.820313-8.535156-8.53125-8.535156h-68.269532c-4.710937 0-8.53125 3.820312-8.53125 8.535156v179.199219h-187.734375v-179.199219c0-4.714844-3.820312-8.535156-8.53125-8.535156h-68.265625c-4.714844 0-8.535156 3.820312-8.535156 8.535156v494.929688c0 4.714844 3.820312 8.535156 8.535156 8.535156h460.796875c4.46875.011719 8.191407-3.421875 8.535157-7.875l16.433593-213.992188h.632813c4.710937 0 8.53125-3.820312 8.53125-8.53125v-34.136718c0-4.710938-3.820313-8.53125-8.53125-8.53125zm-477.867188 256v-477.867188h51.199219v179.199219c0 4.714844 3.820313 8.535156 8.535156 8.535156h204.800781c4.710938 0 8.53125-3.820312 8.53125-8.535156v-179.199219h51.199219v221.867188h-68.265625c-4.714844 0-8.535156 3.820312-8.535156 8.53125v34.132812c0 4.714844 3.820312 8.535156 8.535156 8.535156h.632813l15.75 204.800782zm446.984375-34.132813h-139.785156v17.066407h138.480469l-1.316406 17.066406h-154.863282l-15.75-204.800782h186.367188zm22.347657-187.734375h-204.800782v-17.066406h204.800782zm0 0"/><path d="m400.5625 443.734375h26.105469c4.710937 0 8.53125-3.820313 8.53125-8.535156v-12.253907c24.394531-29.039062 22.484375-71.921874-4.394531-98.679687l-14.566407-14.566406c-3.332031-3.332031-8.734375-3.332031-12.066406 0l-14.574219 14.566406c-2.125 2.15625-4.121094 4.433594-5.972656 6.828125-10.515625-4.511719-21.839844-6.835938-33.28125-6.828125h-26.078125c-4.710937 0-8.53125 3.820313-8.53125 8.535156v26.101563c.050781 46.828125 38 84.78125 84.828125 84.832031zm1.101562-107.394531 8.53125-8.53125 8.535157 8.53125c14.359375 14.269531 19.90625 35.171875 14.507812 54.683594-4.585937-20.875-16.871093-39.253907-34.40625-51.472657.902344-1.085937 1.816407-2.195312 2.832031-3.210937zm-68.863281 4.992187h17.570313c37.40625.042969 67.71875 30.359375 67.761718 67.765625v17.570313h-17.570312c-37.40625-.042969-67.722656-30.355469-67.761719-67.765625zm0 0"/><path d="m228.472656 358.398438h18.992188v-17.066407h-28.851563l-32.023437-55.464843c-2.714844-4.082032-8.222656-5.191407-12.304688-2.476563-.980468.652344-1.824218 1.496094-2.476562 2.476563l-36.691406 63.554687-8.535157-12.800781-14.199219 9.472656 13.226563 19.839844-27.699219 47.933594c-2.355468 4.082031-.957031 9.300781 3.125 11.65625 1.296875.75 2.765625 1.144531 4.265625 1.144531h57.957031l-8.226562 12.328125 14.199219 9.472656 14.535156-21.800781h69.332031c4.714844 0 8.535156-3.824219 8.535156-8.535157 0-1.496093-.394531-2.96875-1.144531-4.265624zm-40.738281 51.203124v-17.070312h-17.066406v17.070312h-50.585938l19.703125-34.136718h30.882813v-17.066406h-21.027344l29.558594-51.199219 24.285156 42.0625-14.316406 21.46875 14.199219 9.472656 9.632812-14.457031 25.320312 43.855468zm0 0"/></svg>