<svg id="Capa_1" enable-background="new 0 0 512 512" height="512" viewBox="0 0 512 512" width="512" xmlns="http://www.w3.org/2000/svg"><g><path d="m420.97 14.069c-.491-7.907-7.048-14.069-14.97-14.069h-60c-7.15 0-13.307 5.047-14.709 12.058l-9.589 47.943h-131.405l-9.589-47.943c-1.402-7.011-7.558-12.058-14.709-12.058h-60c-7.922 0-14.479 6.162-14.97 14.069l-26.016 418.252c-2.695 43.129 31.637 79.679 74.854 79.679h232.266c43.203 0 77.551-36.541 74.854-79.674zm-105.268 75.931-9.588 47.943c-1.396 6.986-7.582 12.057-14.708 12.057h-70.812c-7.126 0-13.312-5.071-14.709-12.058l-9.588-47.942zm56.43 392h-232.265c-25.943 0-46.536-21.824-44.912-47.812l25.14-404.188h33.607c4.453 22.263 17.893 89.466 22.765 113.826 4.193 20.961 22.751 36.174 44.127 36.174h70.812c21.377 0 39.935-15.214 44.126-36.174 4.717-23.587 18.293-91.467 22.765-113.826h33.607l25.142 404.193c1.614 25.833-18.83 47.807-44.914 47.807z"/><path d="m388.458 398.646c-.013-.019-24.946-37.419-24.946-37.419-4.594-6.893-13.909-8.754-20.801-4.161-6.893 4.595-8.756 13.908-4.16 20.801l9.422 14.133h-55.76l4.394-4.394c5.858-5.858 5.858-15.355 0-21.213-5.857-5.858-15.355-5.858-21.213 0l-29.998 29.998c-5.908 5.9-5.79 15.436 0 21.218l29.998 29.998c5.857 5.858 15.355 5.859 21.213 0 5.858-5.858 5.858-15.355 0-21.213l-4.395-4.394h83.776c.008 0 .016.001.024.001 10.977 0 19.457-12.121 12.446-23.355z"/><path d="m244.015 272.04 12.123-18.119 33.973 51.037-6.091-1.223c-19.444-3.91-25.377 25.504-5.904 29.413l41.597 8.35c8.103 1.633 16.016-3.615 17.659-11.755l8.349-41.597c3.902-19.445-25.504-25.374-29.414-5.903l-1.222 6.09-46.428-69.747c-5.92-8.894-19.001-8.926-24.953-.029l-24.621 36.8c-4.606 6.885-2.76 16.201 4.126 20.808 6.884 4.606 16.2 2.76 20.806-4.125z"/><path d="m217.471 304.267c-1.561-7.898-9.218-13.402-17.629-11.811l-41.618 8.24c-19.444 3.849-13.654 33.298 5.826 29.429l6.095-1.207c-38.579 57.628-45.987 68.682-46.739 69.839-6.434 9.938.709 23.132 12.579 23.132.008 0 .015-.001.023-.001 0 0 58.225.112 58.236.112 8.27 0 14.983-6.697 14.999-14.971.016-8.284-6.687-15.013-14.972-15.029l-30.216-.058 31.019-46.334 1.207 6.095c3.865 19.525 33.269 13.569 29.428-5.827z"/></g></svg>