<svg id="Icons" height="512" viewBox="0 0 74 74" width="512" xmlns="http://www.w3.org/2000/svg"><path d="m44.1 72h-40.067a1 1 0 0 1 -1-1v-9.847a1 1 0 0 1 1-1h10.747a3.375 3.375 0 0 0 3.371-3.371v-10.382a3.375 3.375 0 0 0 -3.371-3.37h-10.747a1 1 0 0 1 -1-1v-11.3a1 1 0 0 1 1-1h40.067a1 1 0 0 1 1 1v11.3a1 1 0 0 1 -1 1h-10.744a3.374 3.374 0 0 0 -3.37 3.371v10.381a3.374 3.374 0 0 0 3.37 3.371h10.744a1 1 0 0 1 1 1v9.847a1 1 0 0 1 -1 1zm-39.067-2h38.067v-7.847h-9.744a5.378 5.378 0 0 1 -5.37-5.371v-10.382a5.377 5.377 0 0 1 5.37-5.371h9.744v-9.3h-38.067v9.3h9.747a5.377 5.377 0 0 1 5.371 5.371v10.382a5.377 5.377 0 0 1 -5.371 5.371h-9.747z"/><path d="m44.1 31.73a1 1 0 0 1 -.773-1.634l20.3-24.739-26.1-1.338-9.08 7.588a1 1 0 1 1 -1.283-1.534l9.38-7.84a1 1 0 0 1 .686-.233l28.47 1.461a1 1 0 0 1 .723 1.633l-21.55 26.27a1 1 0 0 1 -.773.366z"/><path d="m4.031 31.73a1 1 0 0 1 -.642-1.767l10.5-8.78a1 1 0 1 1 1.283 1.534l-10.5 8.783a1 1 0 0 1 -.641.23z"/><path d="m20.031 18.35a1 1 0 0 1 -.643-1.767l2.279-1.91a1 1 0 0 1 1.285 1.534l-2.279 1.91a1 1 0 0 1 -.642.233z"/><path d="m44.1 43.03a1 1 0 0 1 -.786-1.618l21.8-27.726-.467-9.176a1 1 0 0 1 2-.1l.484 9.549a1 1 0 0 1 -.213.669l-22.027 28.02a1 1 0 0 1 -.791.382z"/><path d="m44.108 62.153a1 1 0 0 1 -.774-1.632l25.366-31.107a1 1 0 0 1 1.551 1.264l-25.366 31.107a1 1 0 0 1 -.777.368z"/><path d="m44.115 71.993a1 1 0 0 1 -.779-1.626l25.61-31.93-.42-7.389h-3.595a8.231 8.231 0 0 1 -8.022-6.311 1 1 0 0 1 1.944-.471 6.236 6.236 0 0 0 6.078 4.782h4.54a1 1 0 0 1 1 .944l.5 8.714a1 1 0 0 1 -.218.682l-25.853 32.23a1 1 0 0 1 -.785.375z"/><path d="m4.033 62.153a1 1 0 0 1 -.7-1.716l15.12-14.752a1 1 0 0 1 1.4 1.432l-15.122 14.752a1 1 0 0 1 -.698.284z"/></svg>